<svg xmlns="http://www.w3.org/2000/svg" xmlns:xlink="http://www.w3.org/1999/xlink" viewBox="0 0 774.92 276"><defs><style>.a{fill:#fff;}.b{fill:#f9f9f9;}.c{fill:#fcfcfc;}.d{fill:url(#a);}.e{fill:url(#f);}.f{fill:#f5f5f5;}.g{fill:#e6e6e6;}.h{fill:#ebeff2;}.i{fill:#dfe3e8;}.j{fill:#f2f2f2;}.k{fill:url(#g);}.l{fill:url(#h);}.m{fill:gray;}.n{fill:#282828;}</style><radialGradient id="a" cx="392.46" cy="253" r="207" gradientUnits="userSpaceOnUse"><stop offset="0" stop-color="#fff9e2"/><stop offset="0.26" stop-color="#fff8db"/><stop offset="0.65" stop-color="#fef5c7"/><stop offset="1" stop-color="#fdf2af"/></radialGradient><radialGradient id="f" cx="392.33" cy="229.49" r="196.2" xlink:href="#a"/><linearGradient id="g" x1="370.38" y1="101.93" x2="449.38" y2="171.93" gradientUnits="userSpaceOnUse"><stop offset="0" stop-color="#fed14c"/><stop offset="1" stop-color="#feaf0d"/></linearGradient><linearGradient id="h" x1="346.08" y1="129.36" x2="425.08" y2="199.36" xlink:href="#g"/></defs><title>foguete-free</title><path class="a" d="M774.92,275H0C37.83,117.91,196.93,0,387.46,0S737.09,117.91,774.92,275Z"/><path class="b" d="M689.05,275H85.87C122,158.7,243.31,73.17,387.46,73.17S653,158.7,689.05,275Z"/><path class="c" d="M606.62,275H168.3c33.27-77.73,118.84-133,219.16-133S573.35,197.27,606.62,275Z"/><circle class="d" cx="361.46" cy="194" r="2"/><circle class="d" cx="320.96" cy="191.5" r="1.5"/><circle class="d" cx="288.96" cy="208.5" r="2.5"/><circle class="d" cx="419.77" cy="183.96" r="1.69"/><path class="d" d="M493.9,206.65a2.83,2.83,0,1,0-2.83-2.82A2.82,2.82,0,0,0,493.9,206.65Z"/><path class="e" d="M563.52,275H213.41a18.59,18.59,0,0,1,11-4.93c0-.22,0-.43,0-.65a23.19,23.19,0,0,1,23.19-23.19c.84,0,1.67.05,2.49.13a36.76,36.76,0,0,1,53.1-20.16A21.46,21.46,0,0,1,334.7,217a16.64,16.64,0,0,1,31.93-.08,0,0,0,0,0,0,0,6.38,6.38,0,0,0,12.67-1.07V214.4h.1V164.58c0-.12,0-.23,0-.35a9,9,0,0,1,18.08,0c0,.12,0,.23,0,.35V218l.43-.1a6.38,6.38,0,0,0,12.38-1.18,16.39,16.39,0,0,1,30.92.65,21.29,21.29,0,0,1,30.86,9.12,36.76,36.76,0,0,1,53.55,19.79c.46,0,.92,0,1.39,0a23.19,23.19,0,0,1,23.19,23.19c0,.2,0,.4,0,.6l.58,0A18.64,18.64,0,0,1,563.52,275Z"/><path class="f" d="M388.46,7.77V164.23H362.94V50.38C362.94,36.13,372.59,7.9,388.46,7.77Z"/><path class="g" d="M414.2,50.38V164.23H388.46V7.77h.11C404.5,7.77,414.2,36.1,414.2,50.38Z"/><path class="h" d="M423.46,59.14V164.23H414V80.56C414,70.12,417.56,59.23,423.46,59.14Z"/><path class="i" d="M433.08,80.56v83.67h-9.62V59.14h.07C429.47,59.14,433.08,70.08,433.08,80.56Z"/><path class="h" d="M353.46,59.14V164.23H344V80.56C344,70.12,347.56,59.23,353.46,59.14Z"/><path class="i" d="M363.08,80.56v83.67h-9.62V59.14h.07C359.47,59.14,363.08,70.08,363.08,80.56Z"/><path class="j" d="M407,83.5V165h-18.5V53C400,53,407,73.28,407,83.5Z"/><path class="a" d="M388.46,53V165H370V83.5C370,73.28,377,53,388.46,53Z"/><path class="h" d="M388.46,165v9H365v-4.25a4.75,4.75,0,0,1,4.75-4.75Z"/><path class="k" d="M443,165H407.13V104c0,27,35.83,33,35.83,58Z"/><path class="l" d="M334,165h35.83V104c0,27-35.83,33-35.83,58Z"/><path class="m" d="M388.46,71.69v3a11.28,11.28,0,0,0-8,3.32l-1.13-1.13a1.35,1.35,0,0,1,.1-2A14.33,14.33,0,0,1,388.46,71.69Z"/><path class="i" d="M412,169.75V174h-23.5v-9h18.75A4.75,4.75,0,0,1,412,169.75Z"/><path class="n" d="M397.59,76.87,396.46,78a11.28,11.28,0,0,0-8-3.32v-3a14.33,14.33,0,0,1,9,3.2A1.35,1.35,0,0,1,397.59,76.87Z"/><path class="a" d="M520.41,276H256.88A13.52,13.52,0,0,1,271,264.49a13.32,13.32,0,0,1,4.65,1.1,41,41,0,0,1,53.93-30.42,18.37,18.37,0,0,1,28.14-.17A23.88,23.88,0,0,1,391,247.39a41.26,41.26,0,0,1,42.5,2.48,41,41,0,0,1,62.43,10,18.19,18.19,0,0,1,7-1A18.41,18.41,0,0,1,520.41,276Z"/></svg>