<svg width="480" height="240" viewBox="0 0 480 240" fill="none" xmlns="http://www.w3.org/2000/svg">
<rect width="480" height="240" fill="white"/>
<g filter="url(#filter0_d)">
<circle cx="240" cy="75" r="24" fill="white"/>
</g>
<circle cx="240" cy="75" r="24" fill="#8C9EFF"/>
<circle cx="176" cy="75" r="20" fill="#E5DBFF"/>
<circle r="20" transform="matrix(-1 0 0 1 304 75)" fill="#D4E4FF"/>
<circle cx="124" cy="75" r="16" fill="#FFDCDC"/>
<circle r="16" transform="matrix(-1 0 0 1 356 75)" fill="#CCEFFF"/>
<circle cx="82" cy="75" r="12" fill="#FFE2CC"/>
<circle cx="48" cy="75" r="10" fill="#FFFCD7"/>
<path d="M47.2949 78.1211C48.2363 78.1211 48.7988 77.6797 49.0566 77.1758H49.1035V78H50.4629V73.9844C50.4629 72.3984 49.1699 71.9219 48.0254 71.9219C46.7637 71.9219 45.7949 72.4844 45.4824 73.5781L46.8027 73.7656C46.9434 73.3555 47.3418 73.0039 48.0332 73.0039C48.6895 73.0039 49.0488 73.3398 49.0488 73.9297V73.9531C49.0488 74.3594 48.623 74.3789 47.5645 74.4922C46.4004 74.6172 45.2871 74.9648 45.2871 76.3164C45.2871 77.4961 46.1504 78.1211 47.2949 78.1211ZM47.6621 77.082C47.0723 77.082 46.6504 76.8125 46.6504 76.293C46.6504 75.75 47.123 75.5234 47.7559 75.4336C48.127 75.3828 48.8691 75.2891 49.0527 75.1406V75.8477C49.0527 76.5156 48.5137 77.082 47.6621 77.082Z" fill="#C8C000"/>
<path d="M81.2308 78.1321C82.2578 78.1321 82.8714 77.6506 83.1527 77.1009H83.2038V78H84.6868V73.6193C84.6868 71.8892 83.2763 71.3693 82.0277 71.3693C80.6513 71.3693 79.5945 71.983 79.2536 73.1761L80.6939 73.3807C80.8473 72.9332 81.282 72.5497 82.0362 72.5497C82.7521 72.5497 83.1442 72.9162 83.1442 73.5597V73.5852C83.1442 74.0284 82.6797 74.0497 81.5249 74.1733C80.255 74.3097 79.0405 74.6889 79.0405 76.1634C79.0405 77.4503 79.9822 78.1321 81.2308 78.1321ZM81.6314 76.9986C80.9879 76.9986 80.5277 76.7045 80.5277 76.1378C80.5277 75.5455 81.0433 75.2983 81.7337 75.2003C82.1385 75.1449 82.9482 75.0426 83.1484 74.8807V75.652C83.1484 76.3807 82.5604 76.9986 81.6314 76.9986Z" fill="#FFA866"/>
<path d="M123.103 79.1541C124.301 79.1541 125.017 78.5923 125.345 77.951H125.404V79H127.135V73.8892C127.135 71.8707 125.489 71.2642 124.032 71.2642C122.426 71.2642 121.194 71.9801 120.796 73.3722L122.476 73.6108C122.655 73.0888 123.162 72.6413 124.042 72.6413C124.877 72.6413 125.335 73.0689 125.335 73.8196V73.8494C125.335 74.3665 124.793 74.3913 123.446 74.5355C121.964 74.6946 120.547 75.1371 120.547 76.8572C120.547 78.3587 121.646 79.1541 123.103 79.1541ZM123.57 77.8317C122.819 77.8317 122.282 77.4886 122.282 76.8274C122.282 76.1364 122.884 75.848 123.689 75.7337C124.162 75.669 125.106 75.5497 125.34 75.3608V76.2607C125.34 77.1108 124.654 77.8317 123.57 77.8317Z" fill="#FF9797"/>
<path d="M355.122 79.1541C356.32 79.1541 357.036 78.5923 357.364 77.951H357.424V79H359.154V73.8892C359.154 71.8707 357.509 71.2642 356.052 71.2642C354.446 71.2642 353.213 71.9801 352.815 73.3722L354.496 73.6108C354.675 73.0888 355.182 72.6413 356.062 72.6413C356.897 72.6413 357.354 73.0689 357.354 73.8196V73.8494C357.354 74.3665 356.812 74.3913 355.465 74.5355C353.984 74.6946 352.567 75.1371 352.567 76.8572C352.567 78.3587 353.665 79.1541 355.122 79.1541ZM355.589 77.8317C354.839 77.8317 354.302 77.4886 354.302 76.8274C354.302 76.1364 354.903 75.848 355.709 75.7337C356.181 75.669 357.126 75.5497 357.359 75.3608V76.2607C357.359 77.1108 356.673 77.8317 355.589 77.8317Z" fill="#33C0FF"/>
<path d="M174.994 80.1761C176.363 80.1761 177.181 79.5341 177.556 78.8011H177.625V80H179.602V74.1591C179.602 71.8523 177.721 71.1591 176.056 71.1591C174.221 71.1591 172.812 71.9773 172.358 73.5682L174.278 73.8409C174.483 73.2443 175.062 72.733 176.068 72.733C177.022 72.733 177.545 73.2216 177.545 74.0795V74.1136C177.545 74.7045 176.926 74.733 175.386 74.8977C173.693 75.0795 172.074 75.5852 172.074 77.5511C172.074 79.267 173.329 80.1761 174.994 80.1761ZM175.528 78.6648C174.67 78.6648 174.056 78.2727 174.056 77.517C174.056 76.7273 174.744 76.3977 175.664 76.267C176.204 76.1932 177.284 76.0568 177.551 75.8409V76.8693C177.551 77.8409 176.767 78.6648 175.528 78.6648Z" fill="#B388FF"/>
<path d="M302.568 80.1761C303.938 80.1761 304.756 79.5341 305.131 78.8011H305.199V80H307.176V74.1591C307.176 71.8523 305.295 71.1591 303.631 71.1591C301.795 71.1591 300.386 71.9773 299.932 73.5682L301.852 73.8409C302.057 73.2443 302.636 72.733 303.642 72.733C304.597 72.733 305.119 73.2216 305.119 74.0795V74.1136C305.119 74.7045 304.5 74.733 302.96 74.8977C301.267 75.0795 299.648 75.5852 299.648 77.5511C299.648 79.267 300.903 80.1761 302.568 80.1761ZM303.102 78.6648C302.244 78.6648 301.631 78.2727 301.631 77.517C301.631 76.7273 302.318 76.3977 303.239 76.267C303.778 76.1932 304.858 76.0568 305.125 75.8409V76.8693C305.125 77.8409 304.341 78.6648 303.102 78.6648Z" fill="#6AA2FF"/>
<circle cx="432" cy="75" r="10" fill="#F0FFDE"/>
<path d="M431.295 78.1211C432.236 78.1211 432.799 77.6797 433.057 77.1758H433.104V78H434.463V73.9844C434.463 72.3984 433.17 71.9219 432.025 71.9219C430.764 71.9219 429.795 72.4844 429.482 73.5781L430.803 73.7656C430.943 73.3555 431.342 73.0039 432.033 73.0039C432.689 73.0039 433.049 73.3398 433.049 73.9297V73.9531C433.049 74.3594 432.623 74.3789 431.564 74.4922C430.4 74.6172 429.287 74.9648 429.287 76.3164C429.287 77.4961 430.15 78.1211 431.295 78.1211ZM431.662 77.082C431.072 77.082 430.65 76.8125 430.65 76.293C430.65 75.75 431.123 75.5234 431.756 75.4336C432.127 75.3828 432.869 75.2891 433.053 75.1406V75.8477C433.053 76.5156 432.514 77.082 431.662 77.082Z" fill="#98D64D"/>
<circle r="12" transform="matrix(-1 0 0 1 398 75)" fill="#CCF4DD"/>
<path d="M397.231 78.1321C398.258 78.1321 398.871 77.6506 399.153 77.1009H399.204V78H400.687V73.6193C400.687 71.8892 399.276 71.3693 398.028 71.3693C396.651 71.3693 395.594 71.983 395.254 73.1761L396.694 73.3807C396.847 72.9332 397.282 72.5497 398.036 72.5497C398.752 72.5497 399.144 72.9162 399.144 73.5597V73.5852C399.144 74.0284 398.68 74.0497 397.525 74.1733C396.255 74.3097 395.04 74.6889 395.04 76.1634C395.04 77.4503 395.982 78.1321 397.231 78.1321ZM397.631 76.9986C396.988 76.9986 396.528 76.7045 396.528 76.1378C396.528 75.5455 397.043 75.2983 397.734 75.2003C398.138 75.1449 398.948 75.0426 399.148 74.8807V75.652C399.148 76.3807 398.56 76.9986 397.631 76.9986Z" fill="#33C26D"/>
<path fill-rule="evenodd" clip-rule="evenodd" d="M233.101 75.2737C232.776 74.9483 232.776 74.4206 233.101 74.0952L233.691 73.5059C234.016 73.1805 234.544 73.1805 234.869 73.5059L237.815 76.4522L244.297 69.9704C244.623 69.645 245.15 69.645 245.476 69.9704L246.065 70.5597C246.391 70.8851 246.391 71.4127 246.065 71.7382L238.405 79.3985C238.28 79.5237 238.125 79.6007 237.963 79.6296L237.865 79.6411H237.766C237.57 79.6296 237.376 79.5487 237.226 79.3985L233.101 75.2737Z" fill="white"/>
<rect x="385" y="169" width="91" height="34" rx="17" fill="#DFFFED"/>
<path d="M404.055 181.545V191H405.699V184.491H405.787L408.399 190.972H409.627L412.24 184.505H412.328V191H413.972V181.545H411.876L409.069 188.396H408.958L406.151 181.545H404.055ZM415.447 191H417.159V187.538H418.904L420.76 191H422.671L420.626 187.251C421.739 186.804 422.325 185.853 422.325 184.569C422.325 182.764 421.162 181.545 418.992 181.545H415.447V191ZM417.159 186.116V182.977H418.729C420.008 182.977 420.58 183.563 420.58 184.569C420.58 185.576 420.008 186.116 418.738 186.116H417.159ZM423.512 191H425.224V187.538H426.969L428.825 191H430.736L428.691 187.251C429.804 186.804 430.39 185.853 430.39 184.569C430.39 182.764 429.227 181.545 427.057 181.545H423.512V191ZM425.224 186.116V182.977H426.794C428.073 182.977 428.645 183.563 428.645 184.569C428.645 185.576 428.073 186.116 426.803 186.116H425.224ZM435.625 191L436.406 188.669H439.96L440.745 191H442.573L439.24 181.545H437.126L433.797 191H435.625ZM436.867 187.293L438.146 183.484H438.22L439.499 187.293H436.867ZM445.026 181.545H443.355V191H445.026V181.545ZM449.895 183.909H448.496V182.21H446.825V183.909H445.819V185.202H446.825V189.144C446.816 190.478 447.785 191.134 449.041 191.097C449.517 191.083 449.844 190.991 450.024 190.931L449.743 189.624C449.651 189.647 449.461 189.689 449.254 189.689C448.833 189.689 448.496 189.541 448.496 188.867V185.202H449.895V183.909ZM453.92 191.138C455.997 191.138 457.317 189.675 457.317 187.482C457.317 185.285 455.997 183.817 453.92 183.817C451.842 183.817 450.522 185.285 450.522 187.482C450.522 189.675 451.842 191.138 453.92 191.138ZM453.929 189.8C452.779 189.8 452.216 188.775 452.216 187.478C452.216 186.18 452.779 185.142 453.929 185.142C455.06 185.142 455.623 186.18 455.623 187.478C455.623 188.775 455.06 189.8 453.929 189.8Z" fill="#66D191"/>
<rect x="176" y="135" width="127" height="48" rx="24" fill="#E8ECFF"/>
<path d="M199.539 166H202.174V161.085H204.958C208.317 161.085 210.121 159.068 210.121 156.27C210.121 153.493 208.338 151.455 204.993 151.455H199.539V166ZM202.174 158.919V153.656H204.588C206.563 153.656 207.436 154.722 207.436 156.27C207.436 157.818 206.563 158.919 204.602 158.919H202.174ZM211.696 166H214.267V159.587C214.267 158.202 215.311 157.222 216.724 157.222C217.158 157.222 217.697 157.3 217.918 157.371V155.006C217.683 154.963 217.278 154.935 216.994 154.935C215.744 154.935 214.7 155.645 214.303 156.909H214.189V155.091H211.696V166ZM223.335 166.213C226.531 166.213 228.562 163.962 228.562 160.588C228.562 157.207 226.531 154.949 223.335 154.949C220.139 154.949 218.108 157.207 218.108 160.588C218.108 163.962 220.139 166.213 223.335 166.213ZM223.349 164.153C221.581 164.153 220.714 162.577 220.714 160.581C220.714 158.585 221.581 156.987 223.349 156.987C225.089 156.987 225.956 158.585 225.956 160.581C225.956 162.577 225.089 164.153 223.349 164.153ZM238.767 157.974C238.412 156.128 236.934 154.949 234.377 154.949C231.75 154.949 229.96 156.241 229.967 158.259C229.96 159.849 230.94 160.901 233.035 161.334L234.896 161.724C235.897 161.945 236.366 162.349 236.366 162.967C236.366 163.713 235.556 164.274 234.335 164.274C233.156 164.274 232.389 163.763 232.169 162.783L229.662 163.024C229.981 165.027 231.664 166.213 234.342 166.213C237.069 166.213 238.994 164.8 239.001 162.733C238.994 161.178 237.992 160.226 235.933 159.778L234.072 159.381C232.964 159.132 232.524 158.749 232.531 158.116C232.524 157.378 233.34 156.866 234.413 156.866C235.599 156.866 236.224 157.513 236.423 158.23L238.767 157.974ZM240.521 170.091H243.092V164.281H243.199C243.603 165.077 244.449 166.192 246.324 166.192C248.895 166.192 250.819 164.153 250.819 160.56C250.819 156.923 248.838 154.949 246.316 154.949C244.392 154.949 243.589 156.107 243.199 156.895H243.049V155.091H240.521V170.091ZM243.042 160.545C243.042 158.429 243.951 157.058 245.606 157.058C247.318 157.058 248.199 158.514 248.199 160.545C248.199 162.591 247.304 164.082 245.606 164.082C243.966 164.082 243.042 162.662 243.042 160.545ZM257.251 166.213C259.793 166.213 261.54 164.97 261.995 163.074L259.594 162.804C259.246 163.727 258.394 164.21 257.286 164.21C255.624 164.21 254.523 163.116 254.502 161.249H262.101V160.46C262.101 156.632 259.8 154.949 257.116 154.949C253.991 154.949 251.952 157.243 251.952 160.609C251.952 164.033 253.962 166.213 257.251 166.213ZM254.509 159.516C254.587 158.124 255.617 156.952 257.151 156.952C258.628 156.952 259.623 158.031 259.637 159.516H254.509ZM268.435 166.213C271.176 166.213 272.924 164.587 273.108 162.271H270.651C270.431 163.443 269.586 164.118 268.456 164.118C266.851 164.118 265.814 162.776 265.814 160.545C265.814 158.344 266.873 157.023 268.456 157.023C269.692 157.023 270.452 157.818 270.651 158.869H273.108C272.931 156.504 271.084 154.949 268.421 154.949C265.225 154.949 263.208 157.257 263.208 160.588C263.208 163.891 265.175 166.213 268.435 166.213ZM280.067 155.091H277.915V152.477H275.344V155.091H273.796V157.08H275.344V163.145C275.33 165.197 276.821 166.206 278.753 166.149C279.485 166.128 279.989 165.986 280.266 165.893L279.833 163.884C279.69 163.919 279.399 163.983 279.08 163.983C278.433 163.983 277.915 163.756 277.915 162.719V157.08H280.067V155.091Z" fill="#8C9EFF"/>
<rect x="38" y="123" width="72" height="37" rx="18.5" fill="#FFF3CF"/>
<path d="M59.0913 147H65.4201V145.454H60.9358V136.818H59.0913V147ZM69.9021 147.149C71.6819 147.149 72.905 146.279 73.2231 144.952L71.5427 144.763C71.2991 145.409 70.7025 145.747 69.927 145.747C68.7636 145.747 67.993 144.982 67.9781 143.674H73.2977V143.122C73.2977 140.442 71.6869 139.264 69.8077 139.264C67.6202 139.264 66.1933 140.87 66.1933 143.227C66.1933 145.623 67.6003 147.149 69.9021 147.149ZM67.9831 142.461C68.0378 141.487 68.7587 140.666 69.8325 140.666C70.8666 140.666 71.5626 141.422 71.5726 142.461H67.9831ZM76.5977 147.154C77.7959 147.154 78.5118 146.592 78.8399 145.951H78.8996V147H80.6297V141.889C80.6297 139.871 78.9841 139.264 77.5274 139.264C75.9216 139.264 74.6886 139.98 74.2909 141.372L75.9713 141.611C76.1503 141.089 76.6574 140.641 77.5373 140.641C78.3726 140.641 78.83 141.069 78.83 141.82V141.849C78.83 142.366 78.288 142.391 76.9407 142.536C75.4592 142.695 74.0423 143.137 74.0423 144.857C74.0423 146.359 75.141 147.154 76.5977 147.154ZM77.065 145.832C76.3143 145.832 75.7774 145.489 75.7774 144.827C75.7774 144.136 76.379 143.848 77.1844 143.734C77.6567 143.669 78.6013 143.55 78.8349 143.361V144.261C78.8349 145.111 78.1488 145.832 77.065 145.832ZM84.8531 147.134C86.1656 147.134 86.7573 146.354 87.0406 145.797H87.15V147H88.9199V136.818H87.1152V140.626H87.0406C86.7672 140.075 86.2054 139.264 84.8581 139.264C83.0932 139.264 81.7061 140.646 81.7061 143.192C81.7061 145.707 83.0534 147.134 84.8531 147.134ZM85.3553 145.658C84.1671 145.658 83.5406 144.614 83.5406 143.182C83.5406 141.76 84.1571 140.741 85.3553 140.741C86.5136 140.741 87.15 141.7 87.15 143.182C87.15 144.663 86.5037 145.658 85.3553 145.658Z" fill="#FFB680"/>
<rect x="298" y="177" width="78" height="37" rx="18.5" fill="#F0FFDE"/>
<path d="M327.843 194.254C327.529 191.991 325.789 190.679 323.532 190.679C320.873 190.679 318.869 192.618 318.869 195.909C318.869 199.195 320.848 201.139 323.532 201.139C325.953 201.139 327.559 199.573 327.843 197.629L325.983 197.619C325.75 198.812 324.775 199.484 323.557 199.484C321.907 199.484 320.723 198.246 320.723 195.909C320.723 193.612 321.897 192.335 323.562 192.335C324.8 192.335 325.77 193.036 325.983 194.254H327.843ZM330.832 190.818H329.032V201H330.832V190.818ZM332.263 201H334.062V193.364H332.263V201ZM333.167 192.28C333.739 192.28 334.207 191.842 334.207 191.305C334.207 190.763 333.739 190.326 333.167 190.326C332.591 190.326 332.123 190.763 332.123 191.305C332.123 191.842 332.591 192.28 333.167 192.28ZM338.874 201.149C340.654 201.149 341.877 200.279 342.195 198.952L340.514 198.763C340.271 199.409 339.674 199.747 338.899 199.747C337.735 199.747 336.965 198.982 336.95 197.674H342.269V197.122C342.269 194.442 340.659 193.264 338.779 193.264C336.592 193.264 335.165 194.87 335.165 197.227C335.165 199.623 336.572 201.149 338.874 201.149ZM336.955 196.461C337.009 195.487 337.73 194.666 338.804 194.666C339.838 194.666 340.534 195.422 340.544 196.461H336.955ZM345.172 196.526C345.172 195.422 345.838 194.786 346.787 194.786C347.717 194.786 348.274 195.397 348.274 196.416V201H350.074V196.138C350.079 194.308 349.035 193.264 347.459 193.264C346.315 193.264 345.53 193.811 345.182 194.661H345.092V193.364H343.372V201H345.172V196.526ZM355.296 193.364H353.79V191.534H351.99V193.364H350.906V194.756H351.99V199.001C351.98 200.438 353.024 201.144 354.377 201.104C354.889 201.089 355.242 200.99 355.436 200.925L355.132 199.518C355.033 199.543 354.829 199.588 354.605 199.588C354.153 199.588 353.79 199.429 353.79 198.703V194.756H355.296V193.364Z" fill="#00C853"/>
<rect x="154" y="195" width="80" height="37" rx="18.5" fill="#FFDCDC"/>
<path d="M183.765 212.254C183.451 209.991 181.711 208.679 179.454 208.679C176.794 208.679 174.791 210.618 174.791 213.909C174.791 217.195 176.77 219.139 179.454 219.139C181.875 219.139 183.481 217.573 183.765 215.629L181.905 215.619C181.671 216.812 180.697 217.484 179.479 217.484C177.828 217.484 176.645 216.246 176.645 213.909C176.645 211.612 177.819 210.335 179.484 210.335C180.722 210.335 181.691 211.036 181.905 212.254H183.765ZM186.754 214.526C186.754 213.422 187.44 212.786 188.404 212.786C189.349 212.786 189.906 213.387 189.906 214.416V219H191.706V214.138C191.706 212.293 190.661 211.264 189.076 211.264C187.902 211.264 187.157 211.796 186.804 212.661H186.714V208.818H184.954V219H186.754V214.526ZM197.987 215.788C197.987 216.952 197.157 217.528 196.362 217.528C195.496 217.528 194.92 216.917 194.92 215.947V211.364H193.12V216.226C193.12 218.06 194.164 219.099 195.665 219.099C196.809 219.099 197.614 218.498 197.962 217.643H198.042V219H199.787V211.364H197.987V215.788ZM201.218 219H203.017V214.511C203.017 213.541 203.748 212.855 204.737 212.855C205.041 212.855 205.419 212.91 205.573 212.96V211.304C205.409 211.274 205.125 211.254 204.926 211.254C204.051 211.254 203.321 211.751 203.042 212.636H202.963V211.364H201.218V219ZM208.148 214.526C208.148 213.422 208.814 212.786 209.764 212.786C210.694 212.786 211.25 213.397 211.25 214.416V219H213.05V214.138C213.055 212.308 212.011 211.264 210.435 211.264C209.292 211.264 208.506 211.811 208.158 212.661H208.069V211.364H206.348V219H208.148V214.526Z" fill="#FF867F"/>
<rect x="95" y="167" width="63" height="27" rx="13.5" fill="#F7E8FF"/>
<path d="M113.596 179.254H114.737C114.715 178.148 113.772 177.365 112.379 177.365C111.004 177.365 109.972 178.138 109.975 179.295C109.975 180.235 110.643 180.775 111.72 181.053L112.465 181.245C113.171 181.424 113.638 181.645 113.641 182.153C113.638 182.712 113.107 183.086 112.334 183.086C111.592 183.086 111.017 182.754 110.969 182.066H109.803C109.851 183.367 110.819 184.099 112.343 184.099C113.913 184.099 114.824 183.316 114.827 182.162C114.824 181.028 113.887 180.51 112.903 180.277L112.289 180.123C111.752 179.995 111.17 179.768 111.177 179.222C111.18 178.73 111.621 178.369 112.363 178.369C113.069 178.369 113.536 178.698 113.596 179.254ZM118.692 181.935C118.692 182.683 118.158 183.054 117.646 183.054C117.09 183.054 116.72 182.661 116.72 182.038V179.091H115.563V182.217C115.563 183.396 116.234 184.064 117.199 184.064C117.934 184.064 118.452 183.677 118.676 183.127H118.727V184H119.849V179.091H118.692V181.935ZM124.648 180.388C124.488 179.558 123.824 179.027 122.673 179.027C121.491 179.027 120.685 179.609 120.688 180.516C120.685 181.232 121.126 181.705 122.069 181.9L122.906 182.076C123.357 182.175 123.568 182.357 123.568 182.635C123.568 182.971 123.204 183.223 122.654 183.223C122.123 183.223 121.778 182.993 121.679 182.552L120.551 182.661C120.695 183.562 121.452 184.096 122.657 184.096C123.884 184.096 124.751 183.46 124.754 182.53C124.751 181.83 124.3 181.402 123.373 181.2L122.536 181.021C122.037 180.909 121.839 180.737 121.842 180.452C121.839 180.12 122.206 179.89 122.689 179.89C123.223 179.89 123.504 180.181 123.594 180.504L124.648 180.388ZM125.438 185.841H126.595V183.227H126.643C126.825 183.585 127.205 184.086 128.049 184.086C129.206 184.086 130.072 183.169 130.072 181.552C130.072 179.915 129.18 179.027 128.046 179.027C127.18 179.027 126.818 179.548 126.643 179.903H126.576V179.091H125.438V185.841ZM126.572 181.545C126.572 180.593 126.981 179.976 127.726 179.976C128.496 179.976 128.893 180.631 128.893 181.545C128.893 182.466 128.49 183.137 127.726 183.137C126.988 183.137 126.572 182.498 126.572 181.545ZM132.966 184.096C134.11 184.096 134.896 183.537 135.101 182.683L134.021 182.562C133.864 182.977 133.481 183.195 132.982 183.195C132.234 183.195 131.739 182.702 131.729 181.862H135.149V181.507C135.149 179.784 134.113 179.027 132.905 179.027C131.499 179.027 130.582 180.059 130.582 181.574C130.582 183.115 131.486 184.096 132.966 184.096ZM131.732 181.082C131.768 180.456 132.231 179.928 132.921 179.928C133.586 179.928 134.033 180.414 134.04 181.082H131.732ZM137.999 184.096C139.233 184.096 140.019 183.364 140.102 182.322H138.996C138.897 182.849 138.517 183.153 138.009 183.153C137.286 183.153 136.82 182.549 136.82 181.545C136.82 180.555 137.296 179.96 138.009 179.96C138.565 179.96 138.907 180.318 138.996 180.791H140.102C140.022 179.727 139.191 179.027 137.993 179.027C136.554 179.027 135.647 180.066 135.647 181.565C135.647 183.051 136.532 184.096 137.999 184.096ZM143.233 179.091H142.265V177.915H141.108V179.091H140.411V179.986H141.108V182.715C141.102 183.639 141.773 184.093 142.642 184.067C142.971 184.058 143.198 183.994 143.323 183.952L143.128 183.048C143.064 183.064 142.933 183.092 142.789 183.092C142.498 183.092 142.265 182.99 142.265 182.523V179.986H143.233V179.091Z" fill="#D480FF"/>
<rect x="122" y="129" width="44" height="27" rx="13.5" fill="#FFDCDC"/>
<path d="M137.12 146H138.305V143.219H141.338V146H142.527V139.455H141.338V142.225H138.305V139.455H137.12V146ZM145.637 146.096C147.075 146.096 147.989 145.083 147.989 143.565C147.989 142.043 147.075 141.027 145.637 141.027C144.199 141.027 143.285 142.043 143.285 143.565C143.285 145.083 144.199 146.096 145.637 146.096ZM145.644 145.169C144.848 145.169 144.458 144.46 144.458 143.561C144.458 142.663 144.848 141.944 145.644 141.944C146.427 141.944 146.816 142.663 146.816 143.561C146.816 144.46 146.427 145.169 145.644 145.169ZM151.153 141.091H150.184V139.915H149.027V141.091H148.331V141.986H149.027V144.715C149.021 145.639 149.692 146.093 150.561 146.067C150.891 146.058 151.118 145.994 151.242 145.952L151.047 145.048C150.983 145.064 150.852 145.092 150.709 145.092C150.418 145.092 150.184 144.99 150.184 144.523V141.986H151.153V141.091Z" fill="#FF867F"/>
<rect x="310" y="135" width="103" height="27" rx="13.5" fill="#CCEFFF"/>
<path d="M325.067 145.455V152H326.205V147.494H326.265L328.074 151.981H328.924L330.733 147.503H330.794V152H331.932V145.455H330.481L328.538 150.197H328.461L326.518 145.455H325.067ZM336.031 149.935C336.031 150.683 335.497 151.054 334.986 151.054C334.43 151.054 334.059 150.661 334.059 150.038V147.091H332.902V150.217C332.902 151.396 333.573 152.064 334.538 152.064C335.273 152.064 335.791 151.677 336.015 151.127H336.066V152H337.188V147.091H336.031V149.935ZM338.108 152H339.264V147.091H338.108V152ZM338.689 146.394C339.057 146.394 339.357 146.113 339.357 145.768C339.357 145.419 339.057 145.138 338.689 145.138C338.318 145.138 338.018 145.419 338.018 145.768C338.018 146.113 338.318 146.394 338.689 146.394ZM342.636 147.091H341.667V145.915H340.51V147.091H339.813V147.986H340.51V150.715C340.504 151.639 341.175 152.093 342.044 152.067C342.373 152.058 342.6 151.994 342.725 151.952L342.53 151.048C342.466 151.064 342.335 151.092 342.191 151.092C341.9 151.092 341.667 150.99 341.667 150.523V147.986H342.636V147.091ZM345.422 152.096C346.86 152.096 347.774 151.083 347.774 149.565C347.774 148.043 346.86 147.027 345.422 147.027C343.984 147.027 343.069 148.043 343.069 149.565C343.069 151.083 343.984 152.096 345.422 152.096ZM345.428 151.169C344.632 151.169 344.242 150.46 344.242 149.561C344.242 148.663 344.632 147.944 345.428 147.944C346.211 147.944 346.601 148.663 346.601 149.561C346.601 150.46 346.211 151.169 345.428 151.169ZM350.448 152H351.605V147.091H350.448V152ZM351.03 146.394C351.398 146.394 351.698 146.113 351.698 145.768C351.698 145.419 351.398 145.138 351.03 145.138C350.659 145.138 350.359 145.419 350.359 145.768C350.359 146.113 350.659 146.394 351.03 146.394ZM353.682 149.124C353.682 148.414 354.11 148.005 354.721 148.005C355.318 148.005 355.676 148.398 355.676 149.053V152H356.833V148.874C356.837 147.698 356.165 147.027 355.152 147.027C354.417 147.027 353.912 147.379 353.688 147.925H353.631V147.091H352.525V152H353.682V149.124ZM360.191 147.091H359.222V145.915H358.065V147.091H357.369V147.986H358.065V150.715C358.059 151.639 358.73 152.093 359.6 152.067C359.929 152.058 360.156 151.994 360.28 151.952L360.085 151.048C360.021 151.064 359.89 151.092 359.747 151.092C359.456 151.092 359.222 150.99 359.222 150.523V147.986H360.191V147.091ZM363.009 152.096C364.153 152.096 364.939 151.537 365.144 150.683L364.064 150.562C363.907 150.977 363.524 151.195 363.025 151.195C362.277 151.195 361.782 150.702 361.772 149.862H365.192V149.507C365.192 147.784 364.156 147.027 362.948 147.027C361.542 147.027 360.625 148.059 360.625 149.574C360.625 151.115 361.529 152.096 363.009 152.096ZM361.775 149.082C361.81 148.456 362.274 147.928 362.964 147.928C363.629 147.928 364.076 148.414 364.083 149.082H361.775ZM365.901 152H367.058V149.114C367.058 148.491 367.527 148.05 368.163 148.05C368.358 148.05 368.601 148.085 368.7 148.117V147.053C368.595 147.033 368.413 147.021 368.285 147.021C367.722 147.021 367.253 147.34 367.074 147.909H367.022V147.091H365.901V152ZM371.17 152.096C372.314 152.096 373.101 151.537 373.305 150.683L372.225 150.562C372.068 150.977 371.685 151.195 371.186 151.195C370.438 151.195 369.943 150.702 369.933 149.862H373.353V149.507C373.353 147.784 372.318 147.027 371.109 147.027C369.703 147.027 368.786 148.059 368.786 149.574C368.786 151.115 369.69 152.096 371.17 152.096ZM369.936 149.082C369.972 148.456 370.435 147.928 371.125 147.928C371.79 147.928 372.238 148.414 372.244 149.082H369.936ZM377.942 148.388C377.782 147.558 377.117 147.027 375.967 147.027C374.784 147.027 373.979 147.609 373.982 148.516C373.979 149.232 374.42 149.705 375.363 149.9L376.2 150.076C376.651 150.175 376.862 150.357 376.862 150.635C376.862 150.971 376.497 151.223 375.947 151.223C375.417 151.223 375.072 150.993 374.973 150.552L373.844 150.661C373.988 151.562 374.746 152.096 375.951 152.096C377.178 152.096 378.044 151.46 378.047 150.53C378.044 149.83 377.593 149.402 376.667 149.2L375.829 149.021C375.331 148.909 375.132 148.737 375.136 148.452C375.132 148.12 375.5 147.89 375.983 147.89C376.516 147.89 376.798 148.181 376.887 148.504L377.942 148.388ZM382.611 148.388C382.451 147.558 381.787 147.027 380.636 147.027C379.454 147.027 378.648 147.609 378.651 148.516C378.648 149.232 379.089 149.705 380.032 149.9L380.869 150.076C381.32 150.175 381.531 150.357 381.531 150.635C381.531 150.971 381.167 151.223 380.617 151.223C380.086 151.223 379.741 150.993 379.642 150.552L378.514 150.661C378.658 151.562 379.415 152.096 380.62 152.096C381.847 152.096 382.714 151.46 382.717 150.53C382.714 149.83 382.263 149.402 381.336 149.2L380.499 149.021C380 148.909 379.802 148.737 379.805 148.452C379.802 148.12 380.169 147.89 380.652 147.89C381.186 147.89 381.467 148.181 381.557 148.504L382.611 148.388ZM384.813 152.099C385.584 152.099 386.044 151.738 386.255 151.326H386.293V152H387.405V148.714C387.405 147.417 386.347 147.027 385.411 147.027C384.379 147.027 383.586 147.487 383.33 148.382L384.411 148.536C384.526 148.2 384.852 147.912 385.417 147.912C385.954 147.912 386.248 148.187 386.248 148.67V148.689C386.248 149.021 385.9 149.037 385.034 149.13C384.081 149.232 383.171 149.517 383.171 150.623C383.171 151.588 383.877 152.099 384.813 152.099ZM385.114 151.249C384.631 151.249 384.286 151.028 384.286 150.603C384.286 150.159 384.673 149.974 385.191 149.9C385.494 149.859 386.101 149.782 386.252 149.661V150.239C386.252 150.786 385.811 151.249 385.114 151.249ZM390.12 152.086C390.964 152.086 391.345 151.585 391.527 151.227H391.597V152H392.735V145.455H391.575V147.903H391.527C391.351 147.548 390.99 147.027 390.124 147.027C388.989 147.027 388.097 147.915 388.097 149.552C388.097 151.169 388.963 152.086 390.12 152.086ZM390.443 151.137C389.679 151.137 389.277 150.466 389.277 149.545C389.277 148.631 389.673 147.976 390.443 147.976C391.188 147.976 391.597 148.593 391.597 149.545C391.597 150.498 391.182 151.137 390.443 151.137ZM395.839 152.096C397.277 152.096 398.191 151.083 398.191 149.565C398.191 148.043 397.277 147.027 395.839 147.027C394.401 147.027 393.487 148.043 393.487 149.565C393.487 151.083 394.401 152.096 395.839 152.096ZM395.845 151.169C395.05 151.169 394.66 150.46 394.66 149.561C394.66 148.663 395.05 147.944 395.845 147.944C396.628 147.944 397.018 148.663 397.018 149.561C397.018 150.46 396.628 151.169 395.845 151.169Z" fill="#00B0FF"/>
<rect x="4" y="173" width="81" height="27" rx="13.5" fill="#FFFCD7"/>
<path d="M19.0166 190H20.2023V188.05L20.9278 187.194L22.8806 190H24.306L21.7524 186.392L24.2836 183.455H22.8358L20.2822 186.462H20.2023V183.455H19.0166V190ZM26.5992 190.096C27.7434 190.096 28.5296 189.537 28.7342 188.683L27.6539 188.562C27.4973 188.977 27.1138 189.195 26.6152 189.195C25.8673 189.195 25.3719 188.702 25.3624 187.862H28.7821V187.507C28.7821 185.784 27.7466 185.027 26.5385 185.027C25.1322 185.027 24.215 186.059 24.215 187.574C24.215 189.115 25.1195 190.096 26.5992 190.096ZM25.3656 187.082C25.4007 186.456 25.8641 185.928 26.5545 185.928C27.2192 185.928 27.6667 186.414 27.6731 187.082H25.3656ZM30.0694 191.831C30.9706 191.831 31.4916 191.365 31.7697 190.594L33.7416 185.097L32.5047 185.091L31.3701 188.798H31.319L30.1876 185.091H28.9603L30.7405 190.102L30.6415 190.368C30.4209 190.911 30.0885 190.952 29.5836 190.809L29.3151 191.707C29.4717 191.774 29.753 191.831 30.0694 191.831ZM37.1287 190L37.6688 188.386H40.1298L40.6731 190H41.9387L39.6312 183.455H38.1674L35.8631 190H37.1287ZM37.9884 187.434L38.8737 184.797H38.9249L39.8102 187.434H37.9884ZM44.4716 190.096C45.7053 190.096 46.4915 189.364 46.5746 188.322H45.4688C45.3697 188.849 44.9894 189.153 44.4812 189.153C43.7589 189.153 43.2923 188.549 43.2923 187.545C43.2923 186.555 43.7685 185.96 44.4812 185.96C45.0373 185.96 45.3793 186.318 45.4688 186.791H46.5746C46.4947 185.727 45.6638 185.027 44.4652 185.027C43.027 185.027 42.1194 186.066 42.1194 187.565C42.1194 189.051 43.0047 190.096 44.4716 190.096ZM49.396 190.096C50.6296 190.096 51.4159 189.364 51.499 188.322H50.3931C50.2941 188.849 49.9137 189.153 49.4056 189.153C48.6833 189.153 48.2166 188.549 48.2166 187.545C48.2166 186.555 48.6928 185.96 49.4056 185.96C49.9617 185.96 50.3036 186.318 50.3931 186.791H51.499C51.4191 185.727 50.5881 185.027 49.3896 185.027C47.9514 185.027 47.0437 186.066 47.0437 187.565C47.0437 189.051 47.929 190.096 49.396 190.096ZM54.3203 190.096C55.7585 190.096 56.6726 189.083 56.6726 187.565C56.6726 186.043 55.7585 185.027 54.3203 185.027C52.8821 185.027 51.968 186.043 51.968 187.565C51.968 189.083 52.8821 190.096 54.3203 190.096ZM54.3267 189.169C53.5309 189.169 53.141 188.46 53.141 187.561C53.141 186.663 53.5309 185.944 54.3267 185.944C55.1097 185.944 55.4996 186.663 55.4996 187.561C55.4996 188.46 55.1097 189.169 54.3267 189.169ZM60.5135 187.935C60.5135 188.683 59.9797 189.054 59.4684 189.054C58.9123 189.054 58.5415 188.661 58.5415 188.038V185.091H57.3846V188.217C57.3846 189.396 58.0557 190.064 59.0209 190.064C59.756 190.064 60.2738 189.677 60.4975 189.127H60.5486V190H61.6704V185.091H60.5135V187.935ZM63.7471 187.124C63.7471 186.414 64.1754 186.005 64.7858 186.005C65.3835 186.005 65.7414 186.398 65.7414 187.053V190H66.8984V186.874C66.9016 185.698 66.2304 185.027 65.2173 185.027C64.4822 185.027 63.9772 185.379 63.7535 185.925H63.696V185.091H62.5901V190H63.7471V187.124ZM70.2559 185.091H69.2875V183.915H68.1305V185.091H67.4338V185.986H68.1305V188.715C68.1241 189.639 68.7953 190.093 69.6646 190.067C69.9938 190.058 70.2207 189.994 70.3454 189.952L70.1504 189.048C70.0865 189.064 69.9554 189.092 69.8116 189.092C69.5208 189.092 69.2875 188.99 69.2875 188.523V185.986H70.2559V185.091Z" fill="#C8C000"/>
<rect x="243" y="208" width="55" height="24" rx="12" fill="#CCEFFF"/>
<path d="M255.609 223H259.226V222.116H256.663V217.182H255.609V223ZM259.855 223H260.883V218.636H259.855V223ZM260.372 218.017C260.699 218.017 260.966 217.767 260.966 217.46C260.966 217.151 260.699 216.901 260.372 216.901C260.042 216.901 259.775 217.151 259.775 217.46C259.775 217.767 260.042 218.017 260.372 218.017ZM262.729 220.443C262.729 219.812 263.11 219.449 263.653 219.449C264.184 219.449 264.502 219.798 264.502 220.381V223H265.53V220.222C265.533 219.176 264.937 218.58 264.036 218.58C263.383 218.58 262.934 218.892 262.735 219.378H262.684V218.636H261.701V223H262.729V220.443ZM266.336 223H267.364V221.534L267.739 221.134L269.075 223H270.305L268.515 220.52L270.205 218.636H269.004L267.435 220.389H267.364V217.182H266.336V223ZM272.403 223.085C273.42 223.085 274.119 222.588 274.3 221.83L273.34 221.722C273.201 222.091 272.86 222.284 272.417 222.284C271.752 222.284 271.312 221.847 271.303 221.099H274.343V220.784C274.343 219.253 273.423 218.58 272.349 218.58C271.099 218.58 270.283 219.497 270.283 220.844C270.283 222.213 271.087 223.085 272.403 223.085ZM271.306 220.406C271.337 219.849 271.749 219.381 272.363 219.381C272.954 219.381 273.352 219.812 273.357 220.406H271.306ZM276.592 223.077C277.342 223.077 277.68 222.631 277.842 222.312H277.905V223H278.916V217.182H277.885V219.358H277.842C277.686 219.043 277.365 218.58 276.595 218.58C275.587 218.58 274.794 219.369 274.794 220.824C274.794 222.261 275.564 223.077 276.592 223.077ZM276.879 222.233C276.2 222.233 275.842 221.636 275.842 220.818C275.842 220.006 276.195 219.423 276.879 219.423C277.541 219.423 277.905 219.972 277.905 220.818C277.905 221.665 277.536 222.233 276.879 222.233ZM279.772 223H280.801V218.636H279.772V223ZM280.289 218.017C280.616 218.017 280.883 217.767 280.883 217.46C280.883 217.151 280.616 216.901 280.289 216.901C279.96 216.901 279.693 217.151 279.693 217.46C279.693 217.767 279.96 218.017 280.289 218.017ZM282.647 220.443C282.647 219.812 283.027 219.449 283.57 219.449C284.101 219.449 284.419 219.798 284.419 220.381V223H285.448V220.222C285.45 219.176 284.854 218.58 283.953 218.58C283.3 218.58 282.851 218.892 282.652 219.378H282.601V218.636H281.618V223H282.647V220.443Z" fill="#5091FF"/>
<rect x="61" y="208" width="82" height="24" rx="12" fill="#FFF8E4"/>
<path d="M79.2596 220.091C79.2596 218.21 78.1119 217.102 76.5863 217.102C75.0579 217.102 73.913 218.21 73.913 220.091C73.913 221.969 75.0579 223.08 76.5863 223.08C78.1119 223.08 79.2596 221.972 79.2596 220.091ZM78.1999 220.091C78.1999 221.415 77.5352 222.134 76.5863 222.134C75.6403 222.134 74.9727 221.415 74.9727 220.091C74.9727 218.767 75.6403 218.048 76.5863 218.048C77.5352 218.048 78.1999 218.767 78.1999 220.091ZM79.9706 223H80.999V220.435C80.999 219.881 81.4166 219.489 81.982 219.489C82.1553 219.489 82.3712 219.52 82.4592 219.548V218.602C82.3655 218.585 82.2036 218.574 82.0899 218.574C81.5899 218.574 81.1723 218.858 81.0132 219.364H80.9678V218.636H79.9706V223ZM82.9025 223H83.9309V218.636H82.9025V223ZM83.4195 218.017C83.7462 218.017 84.0133 217.767 84.0133 217.46C84.0133 217.151 83.7462 216.901 83.4195 216.901C83.09 216.901 82.8229 217.151 82.8229 217.46C82.8229 217.767 83.09 218.017 83.4195 218.017ZM86.6461 224.71C87.8251 224.71 88.6944 224.17 88.6944 223.071V218.636H87.6802V219.358H87.6234C87.4672 219.043 87.1405 218.58 86.3706 218.58C85.362 218.58 84.5694 219.369 84.5694 220.804C84.5694 222.227 85.362 222.938 86.3677 222.938C87.1149 222.938 87.4643 222.537 87.6234 222.216H87.6745V223.043C87.6745 223.668 87.2484 223.932 86.6632 223.932C86.0439 223.932 85.7711 223.639 85.6461 223.401L84.72 223.625C84.9075 224.219 85.5353 224.71 86.6461 224.71ZM86.6547 222.131C85.9757 222.131 85.6177 221.602 85.6177 220.798C85.6177 220.006 85.97 219.423 86.6547 219.423C87.3166 219.423 87.6802 219.972 87.6802 220.798C87.6802 221.631 87.3109 222.131 86.6547 222.131ZM91.4402 223.085C92.4573 223.085 93.1561 222.588 93.338 221.83L92.3777 221.722C92.2385 222.091 91.8976 222.284 91.4544 222.284C90.7897 222.284 90.3493 221.847 90.3408 221.099H93.3806V220.784C93.3806 219.253 92.4601 218.58 91.3863 218.58C90.1363 218.58 89.3209 219.497 89.3209 220.844C89.3209 222.213 90.1249 223.085 91.4402 223.085ZM90.3436 220.406C90.3749 219.849 90.7868 219.381 91.4005 219.381C91.9914 219.381 92.3891 219.812 92.3948 220.406H90.3436ZM94.0106 223H95.039V220.347C95.039 219.81 95.397 219.446 95.8401 219.446C96.2748 219.446 96.5731 219.739 96.5731 220.188V223H97.5816V220.278C97.5816 219.787 97.8742 219.446 98.3714 219.446C98.7862 219.446 99.1157 219.69 99.1157 220.23V223H100.147V220.071C100.147 219.097 99.5845 218.58 98.7833 218.58C98.1498 218.58 97.6668 218.892 97.4737 219.378H97.4282C97.2606 218.884 96.8373 218.58 96.2492 218.58C95.664 218.58 95.2265 218.881 95.0447 219.378H94.9936V218.636H94.0106V223ZM105.902 218.781H106.916C106.896 217.798 106.058 217.102 104.82 217.102C103.598 217.102 102.68 217.79 102.683 218.818C102.683 219.653 103.277 220.134 104.234 220.381L104.896 220.551C105.524 220.71 105.939 220.906 105.942 221.358C105.939 221.855 105.467 222.188 104.78 222.188C104.121 222.188 103.609 221.892 103.567 221.281H102.53C102.573 222.438 103.433 223.088 104.788 223.088C106.183 223.088 106.993 222.392 106.996 221.366C106.993 220.358 106.161 219.898 105.286 219.69L104.74 219.554C104.263 219.44 103.746 219.239 103.751 218.753C103.754 218.315 104.146 217.994 104.805 217.994C105.433 217.994 105.848 218.287 105.902 218.781ZM110.431 221.165C110.431 221.83 109.957 222.159 109.502 222.159C109.008 222.159 108.678 221.81 108.678 221.256V218.636H107.65V221.415C107.65 222.463 108.247 223.057 109.105 223.057C109.758 223.057 110.218 222.713 110.417 222.224H110.462V223H111.46V218.636H110.431V221.165ZM112.277 223H113.306V220.347C113.306 219.81 113.664 219.446 114.107 219.446C114.541 219.446 114.84 219.739 114.84 220.188V223H115.848V220.278C115.848 219.787 116.141 219.446 116.638 219.446C117.053 219.446 117.382 219.69 117.382 220.23V223H118.414V220.071C118.414 219.097 117.851 218.58 117.05 218.58C116.416 218.58 115.933 218.892 115.74 219.378H115.695C115.527 218.884 115.104 218.58 114.516 218.58C113.931 218.58 113.493 218.881 113.311 219.378H113.26V218.636H112.277V223ZM119.217 223H120.245V220.347C120.245 219.81 120.603 219.446 121.046 219.446C121.481 219.446 121.779 219.739 121.779 220.188V223H122.788V220.278C122.788 219.787 123.08 219.446 123.578 219.446C123.992 219.446 124.322 219.69 124.322 220.23V223H125.353V220.071C125.353 219.097 124.791 218.58 123.99 218.58C123.356 218.58 122.873 218.892 122.68 219.378H122.634C122.467 218.884 122.044 218.58 121.455 218.58C120.87 218.58 120.433 218.881 120.251 219.378H120.2V218.636H119.217V223ZM126.157 223H127.185V218.636H126.157V223ZM126.674 218.017C127 218.017 127.267 217.767 127.267 217.46C127.267 217.151 127 216.901 126.674 216.901C126.344 216.901 126.077 217.151 126.077 217.46C126.077 217.767 126.344 218.017 126.674 218.017ZM130.181 218.636H129.321V217.591H128.292V218.636H127.673V219.432H128.292V221.858C128.287 222.679 128.883 223.082 129.656 223.06C129.948 223.051 130.15 222.994 130.261 222.957L130.088 222.153C130.031 222.168 129.914 222.193 129.787 222.193C129.528 222.193 129.321 222.102 129.321 221.688V219.432H130.181V218.636Z" fill="#FFB680"/>
<path d="M91.1477 25H93.2557V21.0682H95.483C98.1705 21.0682 99.6136 19.4545 99.6136 17.2159C99.6136 14.9943 98.1875 13.3636 95.5114 13.3636H91.1477V25ZM93.2557 19.3352V15.125H95.1875C96.767 15.125 97.4659 15.9773 97.4659 17.2159C97.4659 18.4545 96.767 19.3352 95.1989 19.3352H93.2557ZM100.874 25H102.931V19.8693C102.931 18.7614 103.766 17.9773 104.896 17.9773C105.243 17.9773 105.675 18.0398 105.851 18.0966V16.2045C105.663 16.1705 105.34 16.1477 105.112 16.1477C104.112 16.1477 103.277 16.7159 102.959 17.7273H102.868V16.2727H100.874V25ZM110.185 25.1705C112.742 25.1705 114.367 23.3693 114.367 20.6705C114.367 17.9659 112.742 16.1591 110.185 16.1591C107.628 16.1591 106.003 17.9659 106.003 20.6705C106.003 23.3693 107.628 25.1705 110.185 25.1705ZM110.196 23.5227C108.781 23.5227 108.088 22.2614 108.088 20.6648C108.088 19.0682 108.781 17.7898 110.196 17.7898C111.588 17.7898 112.281 19.0682 112.281 20.6648C112.281 22.2614 111.588 23.5227 110.196 23.5227ZM122.53 18.5795C122.246 17.1023 121.064 16.1591 119.019 16.1591C116.917 16.1591 115.485 17.1932 115.49 18.8068C115.485 20.0795 116.269 20.9205 117.945 21.267L119.434 21.5795C120.235 21.7557 120.61 22.0795 120.61 22.5739C120.61 23.1705 119.962 23.6193 118.985 23.6193C118.042 23.6193 117.428 23.2102 117.252 22.4261L115.246 22.6193C115.502 24.2216 116.848 25.1705 118.99 25.1705C121.172 25.1705 122.712 24.0398 122.718 22.3864C122.712 21.142 121.911 20.3807 120.263 20.0227L118.774 19.7045C117.888 19.5057 117.536 19.1989 117.542 18.6932C117.536 18.1023 118.189 17.6932 119.047 17.6932C119.996 17.6932 120.496 18.2102 120.655 18.7841L122.53 18.5795ZM123.934 28.2727H125.991V23.625H126.076C126.4 24.2614 127.076 25.1534 128.576 25.1534C130.633 25.1534 132.172 23.5227 132.172 20.6477C132.172 17.7386 130.587 16.1591 128.57 16.1591C127.03 16.1591 126.388 17.0852 126.076 17.7159H125.956V16.2727H123.934V28.2727ZM125.951 20.6364C125.951 18.9432 126.678 17.8466 128.002 17.8466C129.371 17.8466 130.076 19.0114 130.076 20.6364C130.076 22.2727 129.36 23.4659 128.002 23.4659C126.689 23.4659 125.951 22.3295 125.951 20.6364ZM137.317 25.1705C139.351 25.1705 140.749 24.1761 141.113 22.6591L139.192 22.4432C138.914 23.1818 138.232 23.5682 137.346 23.5682C136.016 23.5682 135.136 22.6932 135.118 21.1989H141.198V20.5682C141.198 17.5057 139.357 16.1591 137.209 16.1591C134.709 16.1591 133.079 17.9943 133.079 20.6875C133.079 23.4261 134.687 25.1705 137.317 25.1705ZM135.124 19.8125C135.187 18.6989 136.011 17.7614 137.238 17.7614C138.42 17.7614 139.215 18.625 139.226 19.8125H135.124ZM146.265 25.1705C148.458 25.1705 149.856 23.8693 150.004 22.017H148.038C147.861 22.9545 147.185 23.4943 146.282 23.4943C144.998 23.4943 144.168 22.4205 144.168 20.6364C144.168 18.875 145.015 17.8182 146.282 17.8182C147.271 17.8182 147.879 18.4545 148.038 19.2955H150.004C149.861 17.4034 148.384 16.1591 146.254 16.1591C143.697 16.1591 142.083 18.0057 142.083 20.6705C142.083 23.3125 143.657 25.1705 146.265 25.1705ZM155.57 16.2727H153.849V14.1818H151.792V16.2727H150.553V17.8636H151.792V22.7159C151.781 24.358 152.974 25.1648 154.519 25.1193C155.104 25.1023 155.508 24.9886 155.729 24.9148L155.383 23.3068C155.269 23.3352 155.036 23.3864 154.781 23.3864C154.264 23.3864 153.849 23.2045 153.849 22.375V17.8636H155.57V16.2727Z" fill="#AEB0BA"/>
<path fill-rule="evenodd" clip-rule="evenodd" d="M63.3467 12.582L56.3395 19.5891L63.4106 26.6602L70.4177 19.6531L69.0919 13.9078L63.3467 12.582ZM63.7214 10.9578L69.4667 12.2836C70.0877 12.4269 70.5726 12.9118 70.7159 13.5328L72.0417 19.278C72.1709 19.838 72.0026 20.425 71.5962 20.8313L64.5891 27.8385C63.9382 28.4893 62.8829 28.4893 62.2321 27.8385L55.161 20.7674C54.5101 20.1165 54.5101 19.0612 55.161 18.4104L62.1681 11.4032C62.5745 10.9969 63.1615 10.8285 63.7214 10.9578ZM65.1784 15.4641C65.8292 14.8132 66.8845 14.8132 67.5354 15.4641C68.1862 16.115 68.1862 17.1702 67.5354 17.8211C66.8845 18.472 65.8292 18.472 65.1784 17.8211C64.5275 17.1702 64.5275 16.115 65.1784 15.4641Z" fill="#D1D3DD"/>
<path fill-rule="evenodd" clip-rule="evenodd" d="M30.5 12C31.0523 12 31.5 12.4477 31.5 13V17.5H36C36.5523 17.5 37 17.9477 37 18.5V19.5C37 20.0523 36.5523 20.5 36 20.5H31.5V25C31.5 25.5523 31.0523 26 30.5 26H29.5C28.9477 26 28.5 25.5523 28.5 25L28.499 20.5H24C23.4477 20.5 23 20.0523 23 19.5V18.5C23 17.9477 23.4477 17.5 24 17.5H28.5V13C28.5 12.4477 28.9477 12 29.5 12H30.5Z" fill="#8C9EFF"/>
<defs>
<filter id="filter0_d" x="188.571" y="32.1429" width="102.857" height="102.857" filterUnits="userSpaceOnUse" color-interpolation-filters="sRGB">
<feFlood flood-opacity="0" result="BackgroundImageFix"/>
<feColorMatrix in="SourceAlpha" type="matrix" values="0 0 0 0 0 0 0 0 0 0 0 0 0 0 0 0 0 0 127 0"/>
<feOffset dy="8.57143"/>
<feGaussianBlur stdDeviation="13.7143"/>
<feColorMatrix type="matrix" values="0 0 0 0 0.596078 0 0 0 0 0.6 0 0 0 0 0.639216 0 0 0 0.24 0"/>
<feBlend mode="normal" in2="BackgroundImageFix" result="effect1_dropShadow"/>
<feBlend mode="normal" in="SourceGraphic" in2="effect1_dropShadow" result="shape"/>
</filter>
</defs>
</svg>
